<svg width="24" height="24" viewBox="0 0 24 24" fill="none" xmlns="http://www.w3.org/2000/svg">
<path d="M22.0575 6.94502C21.938 6.50105 21.704 6.09626 21.3789 5.77115C21.0538 5.44604 20.649 5.21203 20.205 5.09252C18.57 4.65002 12 4.65002 12 4.65002C12 4.65002 5.43002 4.65002 3.79502 5.09252C3.35105 5.21203 2.94625 5.44604 2.62114 5.77115C2.29603 6.09626 2.06202 6.50105 1.94251 6.94502C1.63722 8.61247 1.48907 10.3049 1.50002 12C1.48907 13.6952 1.63722 15.3876 1.94251 17.055C2.06202 17.499 2.29603 17.9038 2.62114 18.2289C2.94625 18.554 3.35105 18.788 3.79502 18.9075C5.43002 19.35 12 19.35 12 19.35C12 19.35 18.57 19.35 20.205 18.9075C20.649 18.788 21.0538 18.554 21.3789 18.2289C21.704 17.9038 21.938 17.499 22.0575 17.055C22.3628 15.3876 22.511 13.6952 22.5 12C22.511 10.3049 22.3628 8.61247 22.0575 6.94502ZM9.90002 15.15V8.85002L15.3525 12L9.90002 15.15Z" fill="white"/>
</svg>
